<?xml version="1.0" standalone="no"?>
<!DOCTYPE svg PUBLIC "-//W3C//DTD SVG 20010904//EN"
 "http://www.w3.org/TR/2001/REC-SVG-20010904/DTD/svg10.dtd">
<svg version="1.0" xmlns="http://www.w3.org/2000/svg"
 width="260.000000pt" height="260.000000pt" viewBox="0 0 260.000000 260.000000"
 preserveAspectRatio="xMidYMid meet">
<metadata>
Created by potrace 1.11, written by Peter Selinger 2001-2013
</metadata>
<g transform="translate(0.000000,260.000000) scale(0.100000,-0.100000)"
fill="#000000" stroke="none">
<path d="M1231 2551 c-50 -17 -101 -58 -101 -79 0 -6 -7 -13 -16 -16 -9 -4
-14 -9 -11 -12 3 -4 0 -12 -7 -19 -16 -16 -21 -141 -6 -150 5 -3 10 -15 10
-26 0 -32 120 -131 148 -121 6 2 12 0 12 -5 0 -5 18 -8 40 -8 22 0 40 2 40 5
0 3 10 6 22 7 28 3 100 52 113 79 6 11 15 19 20 17 13 -4 35 75 35 127 0 42
-17 90 -32 90 -5 0 -6 5 -3 10 3 6 2 10 -4 10 -6 0 -17 13 -25 29 -33 62 -148
93 -235 62z"/>
<path d="M1246 1962 c-2 -1 -16 -5 -32 -7 -77 -11 -235 -66 -265 -92 -8 -7
-21 -13 -27 -13 -7 0 -12 -5 -12 -10 0 -6 -19 -19 -42 -30 -57 -26 -163 -85
-180 -99 -7 -7 -53 -34 -103 -60 -49 -27 -90 -54 -90 -62 0 -8 6 -13 14 -11 8
2 17 -2 21 -8 15 -24 142 -50 240 -50 110 0 176 16 265 64 100 55 159 70 265
71 103 0 223 -29 256 -63 10 -9 19 -16 21 -14 2 1 16 -4 31 -12 126 -65 368
-61 484 8 l37 22 -84 44 c-47 24 -85 47 -85 52 0 5 -4 7 -10 3 -5 -3 -18 3
-30 15 -11 11 -20 17 -20 13 0 -5 -4 -3 -8 2 -7 10 -32 25 -134 76 -31 16 -58
33 -60 38 -7 18 -159 82 -244 102 -75 18 -199 31 -208 21z"/>
<path d="M420 1207 c0 -405 10 -457 127 -649 19 -32 40 -61 48 -65 7 -5 37
-31 67 -58 51 -49 170 -125 216 -139 12 -4 22 -12 22 -17 0 -5 7 -9 15 -9 8 0
15 -4 15 -8 0 -5 29 -23 65 -41 36 -18 80 -43 99 -56 19 -13 37 -21 40 -17 3
3 6 0 6 -7 0 -7 5 -9 10 -6 6 3 10 2 10 -3 0 -5 23 -21 50 -35 47 -24 50 -25
50 -7 0 10 -4 21 -9 25 -5 3 -8 16 -5 30 2 13 0 27 -6 30 -6 4 -8 11 -4 16 3
5 0 16 -6 24 -6 8 -9 19 -5 25 3 5 1 10 -4 10 -6 0 -11 8 -11 18 0 24 -78 162
-92 162 -6 0 -9 3 -6 6 3 3 -17 26 -46 52 -28 26 -52 50 -54 55 -2 4 -9 7 -15
7 -7 0 -36 18 -65 40 -29 22 -55 40 -58 40 -20 0 -116 145 -122 185 -1 11 -7
21 -12 23 -5 2 -6 10 -3 18 3 8 1 14 -4 14 -12 0 -12 4 -18 109 -5 88 -35 222
-61 274 -33 63 -144 197 -163 197 -5 0 -14 7 -21 16 -8 8 -22 20 -32 25 -17 9
-18 -2 -18 -284z"/>
<path d="M2147 1475 c-33 -23 -77 -66 -140 -138 -70 -81 -115 -247 -117 -429
0 -16 -4 -28 -9 -28 -6 0 -8 -9 -6 -20 2 -11 0 -20 -6 -20 -5 0 -9 -8 -9 -17
-1 -17 -22 -60 -65 -130 -11 -18 -26 -33 -34 -33 -8 0 -11 -3 -8 -7 4 -3 -1
-11 -11 -17 -90 -54 -158 -107 -257 -203 -18 -17 -95 -169 -95 -187 0 -9 -5
-16 -11 -16 -6 0 -8 -9 -4 -20 3 -11 2 -20 -3 -20 -5 0 -8 -14 -7 -30 1 -17
-1 -33 -6 -36 -11 -6 -12 -44 -2 -44 16 0 93 43 93 51 0 6 4 8 9 5 5 -3 12 1
15 10 4 9 9 15 12 12 5 -5 147 71 170 91 7 5 14 7 18 4 3 -3 8 2 12 11 3 9 10
13 15 10 5 -3 9 0 9 5 0 6 5 11 11 11 7 0 45 20 87 45 41 25 78 45 82 45 4 0
11 7 14 16 4 9 9 15 11 12 3 -2 31 21 63 51 57 55 156 206 146 223 -3 4 -1 8
5 8 16 0 40 89 51 190 6 52 10 213 8 358 l-3 262 -38 -25z"/>
<path d="M1053 1325 c-18 -8 -33 -12 -33 -9 0 3 -7 -2 -16 -10 -8 -9 -21 -16
-27 -16 -19 0 -60 -67 -77 -124 -14 -43 -14 -58 -3 -100 7 -28 24 -67 38 -88
14 -21 25 -42 25 -48 0 -6 4 -9 9 -5 6 3 13 0 18 -8 13 -20 119 -107 132 -107
6 0 11 -4 11 -9 0 -9 66 -59 134 -100 38 -24 39 -24 70 -6 17 10 33 21 36 24
3 3 17 13 32 21 14 8 41 27 60 42 18 15 60 49 93 75 33 26 68 57 78 68 32 36
77 119 77 143 0 12 4 22 9 22 11 0 -12 97 -32 137 -9 17 -29 41 -44 52 -16 11
-34 26 -40 31 -7 6 -13 8 -13 4 0 -3 -7 -1 -15 6 -8 7 -15 9 -15 5 0 -4 -6 -3
-12 2 -19 14 -88 16 -88 2 0 -6 -6 -9 -14 -6 -8 3 -24 -3 -37 -14 -12 -10 -28
-19 -35 -19 -7 0 -25 -16 -40 -35 -31 -42 -37 -43 -54 -10 -13 24 -77 71 -92
67 -5 -1 -8 2 -8 6 0 5 -6 9 -12 10 -7 1 -29 4 -48 6 -19 3 -50 -1 -67 -9z"/>
</g>
</svg>
